<?xml version="1.0" encoding="UTF-8"?>
<svg xmlns="http://www.w3.org/2000/svg" xmlns:xlink="http://www.w3.org/1999/xlink" width="180px" height="39px" viewBox="0 0 180 39" version="1.1">
<g id="surface1">
<path style=" stroke:none;fill-rule:evenodd;fill:rgb(99.607843%,99.607843%,99.607843%);fill-opacity:1;" d="M 24.757812 4.503906 L 29.507812 12.964844 L 30.824219 16.714844 L 29.800781 24.804688 C 29.800781 24.804688 28.046875 30.984375 27.828125 30.984375 C 27.609375 30.984375 20.011719 33.117188 20.011719 33.117188 L 13.148438 31.421875 L 8.039062 28.703125 L 7.597656 18.261719 L 15.414062 19.214844 L 20.085938 10.171875 L 23.59375 4.503906 Z M 24.757812 4.503906 "/>
<path style=" stroke:none;fill-rule:evenodd;fill:rgb(0%,0%,0%);fill-opacity:1;" d="M 14.757812 0.0195312 C 15.707031 0.09375 17.753906 0.167969 18.40625 0.167969 C 19.0625 0.167969 19.941406 0.238281 20.816406 0.238281 C 21.183594 0.238281 24.617188 0.3125 25.636719 0.605469 C 26.660156 0.902344 27.390625 1.855469 27.609375 2.226562 C 29.070312 4.578125 30.96875 8.257812 32.140625 10.757812 C 32.648438 11.859375 34.328125 14.875 35.714844 15.980469 C 37.980469 17.742188 35.277344 18.847656 33.960938 19.070312 C 33.449219 19.140625 32.285156 19.363281 31.410156 19.289062 C 30.53125 21.714844 30.675781 26.570312 29.945312 28.847656 C 29.65625 29.660156 32.792969 29.511719 30.457031 30.46875 C 28.121094 31.421875 26.074219 32.824219 22.71875 34.21875 C 22.71875 34.21875 21.035156 34.734375 20.597656 34.734375 C 20.160156 34.734375 17.53125 33.410156 16.730469 33.484375 C 16 33.628906 17.753906 37.605469 15.339844 37.605469 C 13.804688 37.605469 12.125 37.75 12.492188 35.101562 C 12.710938 34.21875 12.34375 32.675781 12.273438 32.308594 C 12.199219 31.941406 12.417969 31.867188 11.832031 31.496094 C 10.667969 30.6875 8.769531 30.320312 7.234375 29.953125 C 6.136719 29.511719 4.96875 29.808594 5.554688 28.996094 C 6.578125 27.671875 6.941406 28.773438 7.015625 26.644531 C 7.085938 25.539062 7.527344 19.949219 6.796875 19.070312 C 4.019531 16.128906 -2.699219 20.023438 1.171875 15.167969 C 1.539062 14.726562 3.21875 12.964844 3.511719 12.742188 C 4.457031 11.785156 7.160156 7.742188 9.28125 4.429688 C 10.667969 2.226562 11.761719 0.167969 12.199219 0.09375 C 12.785156 -0.0546875 13.292969 0.0195312 14.757812 0.0195312 Z M 15.632812 1.195312 C 16.582031 1.269531 18.550781 1.414062 18.550781 1.414062 C 18.550781 1.414062 20.523438 1.339844 20.671875 1.339844 C 20.816406 1.339844 22.789062 1.339844 22.863281 1.339844 C 23.007812 1.339844 25.269531 1.339844 25.707031 1.636719 C 27.609375 3.402344 31.847656 14.582031 33.816406 16.421875 C 34.179688 16.933594 33.523438 17.15625 33.230469 17.15625 C 33.011719 17.15625 32.5 15.980469 32.5 15.980469 C 32.429688 15.90625 27.390625 7.078125 26.804688 5.902344 C 26.585938 5.386719 26 4.0625 25.707031 3.695312 C 25.417969 3.253906 25.203125 2.59375 24.617188 2.59375 C 22.425781 2.226562 17.019531 16.128906 15.046875 17.449219 C 14.464844 17.816406 13.660156 18.109375 13.148438 18.035156 C 12.636719 17.890625 10.742188 17.449219 10.449219 17.230469 C 8.621094 16.496094 4.675781 16.199219 3.730469 15.535156 C 2.855469 14.949219 9.0625 10.390625 8.550781 8.332031 C 10.8125 6.710938 12.785156 1.195312 12.785156 1.195312 C 13.074219 1.046875 14.683594 1.195312 15.632812 1.195312 Z M 24.761719 6.636719 C 26.367188 11.492188 30.53125 16.273438 30.3125 17.082031 C 29.582031 20.171875 29.507812 25.539062 28.632812 27.746094 C 28.339844 28.480469 22.71875 31.941406 21.839844 31.941406 C 21.546875 31.941406 19.941406 32.160156 19.722656 31.570312 C 18.992188 30.027344 18.917969 29.070312 18.40625 28.921875 C 16.511719 28.1875 18.769531 31.867188 16.730469 31.203125 C 16.070312 30.984375 8.839844 29.734375 8.839844 27.085938 C 8.839844 24.878906 8.839844 23.1875 8.695312 20.832031 C 8.621094 19.140625 9.132812 18.996094 10.15625 19.070312 C 11.03125 19.070312 12.199219 19.289062 13.367188 19.65625 C 14.976562 20.171875 15.558594 20.097656 15.777344 20.097656 C 16 20.097656 16.511719 19.363281 16.582031 18.773438 C 16.730469 18.183594 20.304688 10.09375 22.71875 6.710938 C 23.886719 5.09375 24.105469 4.648438 24.761719 6.636719 Z M 22.496094 25.613281 C 21.695312 23.113281 21.765625 20.609375 23.300781 20.023438 C 24.542969 19.507812 26.148438 19.65625 26.730469 20.609375 C 27.609375 22.011719 27.097656 23.777344 26.148438 25.097656 C 25.128906 26.644531 23.082031 26.644531 22.496094 25.613281 Z M 22.496094 25.613281 "/>
<path style=" stroke:none;fill-rule:evenodd;fill:rgb(96.470588%,65.490196%,3.137255%);fill-opacity:1;" d="M 13.222656 1.046875 C 12.34375 1.195312 12.492188 1.859375 12.273438 2.078125 C 11.101562 4.507812 9.644531 6.492188 8.109375 8.625 C 7.234375 9.949219 4.164062 14.140625 3.871094 14.800781 C 3.726562 15.246094 3.292969 15.246094 3.726562 15.539062 C 4.382812 15.980469 11.394531 17.597656 13.148438 18.039062 C 13.660156 18.113281 15.046875 17.96875 15.488281 17.449219 C 16.21875 16.714844 18.039062 12.890625 18.699219 11.492188 C 19.574219 9.726562 23.15625 2.375 24.757812 2.59375 C 24.976562 2.667969 25.417969 3.253906 25.707031 3.695312 C 26 4.0625 26.585938 5.386719 26.804688 5.902344 C 28.339844 9.359375 30.53125 12.890625 32.136719 16.199219 C 32.355469 16.640625 31.554688 17.300781 31.773438 17.742188 C 31.773438 17.742188 32.574219 17.96875 32.867188 17.96875 C 33.15625 17.96875 34.765625 17.15625 34.398438 16.640625 C 31.847656 13.332031 27.828125 3.769531 25.707031 1.636719 C 25.269531 1.339844 23.007812 1.339844 22.863281 1.339844 L 20.671875 1.339844 C 20.523438 1.339844 18.550781 1.414062 18.550781 1.414062 C 18.550781 1.414062 15.925781 1.269531 15.632812 1.195312 C 15.339844 1.195312 14.027344 1.046875 13.222656 1.046875 Z M 13.222656 1.046875 "/>
<path style=" stroke:none;fill-rule:evenodd;fill:rgb(0%,0%,0%);fill-opacity:1;" d="M 34.910156 21.496094 C 34.109375 21.863281 33.304688 22.378906 32.5 22.671875 C 32.425781 22.746094 34.621094 23.332031 34.910156 24.21875 C 35.933594 26.9375 39.730469 27.453125 41.558594 28.40625 C 44.113281 29.878906 43.75 29.734375 42.070312 27.304688 C 41.339844 26.273438 41.484375 25.027344 41.484375 23.554688 C 41.484375 21.789062 44.625 23.113281 44.554688 21.714844 C 44.554688 21.570312 43.457031 21.128906 43.382812 21.128906 C 43.164062 21.128906 48.203125 18.257812 45.648438 18.335938 C 42.652344 18.40625 44.40625 19.289062 45.722656 15.6875 C 46.59375 13.257812 41.703125 16.933594 40.972656 17.742188 C 39.804688 18.921875 40.167969 19.507812 39.65625 20.757812 C 38.492188 23.703125 39.292969 20.683594 34.910156 21.496094 Z M 34.910156 21.496094 "/>
<path style=" stroke:none;fill-rule:evenodd;fill:rgb(0%,0%,0%);fill-opacity:1;" d="M 60.835938 12.152344 L 62.664062 12.152344 L 62.515625 12.375 C 62.445312 12.671875 62.296875 12.816406 62.222656 13.039062 C 62.078125 13.183594 62.003906 13.332031 61.933594 13.480469 C 61.785156 13.625 61.710938 13.699219 61.640625 13.847656 C 61.492188 13.992188 61.421875 14.066406 61.273438 14.214844 C 60.761719 14.726562 60.183594 15.09375 59.523438 15.320312 C 58.941406 15.539062 58.210938 15.6875 57.480469 15.6875 C 56.96875 15.6875 56.457031 15.613281 56.015625 15.539062 C 55.578125 15.394531 55.066406 15.171875 54.628906 14.949219 C 54.261719 14.726562 53.824219 14.433594 53.53125 14.140625 C 53.171875 13.773438 52.878906 13.40625 52.660156 13.039062 C 52.367188 12.597656 52.222656 12.152344 52.074219 11.710938 C 51.929688 11.199219 51.855469 10.757812 51.855469 10.242188 C 51.855469 9.804688 51.929688 9.285156 52.074219 8.84375 C 52.222656 8.402344 52.367188 7.964844 52.660156 7.523438 C 52.878906 7.082031 53.171875 6.710938 53.53125 6.417969 C 53.824219 6.050781 54.261719 5.753906 54.628906 5.535156 C 55.066406 5.316406 55.503906 5.09375 56.015625 5.019531 C 56.457031 4.875 56.96875 4.800781 57.480469 4.800781 C 59.011719 4.800781 60.398438 5.386719 61.492188 6.492188 C 61.640625 6.710938 61.859375 6.929688 62.078125 7.230469 C 62.222656 7.523438 62.371094 7.816406 62.515625 8.183594 L 62.664062 8.476562 L 60.761719 8.476562 L 60.691406 8.402344 C 60.542969 8.183594 60.398438 7.964844 60.324219 7.816406 C 60.183594 7.667969 60.035156 7.523438 59.890625 7.375 C 59.523438 7.082031 59.160156 6.859375 58.722656 6.710938 C 58.355469 6.5625 57.917969 6.492188 57.40625 6.492188 C 57.113281 6.492188 56.746094 6.492188 56.457031 6.636719 C 56.089844 6.710938 55.796875 6.785156 55.503906 7.007812 C 55.214844 7.15625 54.921875 7.375 54.703125 7.597656 C 54.484375 7.816406 54.261719 8.035156 54.117188 8.332031 C 53.898438 8.625 53.824219 8.917969 53.753906 9.210938 C 53.605469 9.578125 53.605469 9.875 53.605469 10.242188 C 53.605469 10.609375 53.605469 10.90625 53.753906 11.273438 C 53.824219 11.566406 53.898438 11.859375 54.117188 12.152344 C 54.261719 12.449219 54.484375 12.671875 54.703125 12.890625 C 54.921875 13.183594 55.214844 13.332031 55.503906 13.550781 C 55.796875 13.699219 56.089844 13.773438 56.382812 13.917969 C 56.746094 13.992188 57.039062 13.992188 57.40625 13.992188 C 57.769531 13.992188 58.0625 13.992188 58.355469 13.917969 C 58.648438 13.847656 58.941406 13.773438 59.230469 13.625 C 59.378906 13.550781 59.453125 13.480469 59.597656 13.332031 C 59.742188 13.257812 59.890625 13.183594 59.964844 13.113281 C 60.035156 13.039062 60.183594 12.890625 60.324219 12.746094 C 60.398438 12.597656 60.542969 12.375 60.691406 12.226562 L 60.761719 12.152344 Z M 66.023438 15.246094 L 66.023438 6.636719 L 63.6875 6.636719 L 63.6875 5.019531 L 70.113281 5.019531 L 70.113281 6.636719 L 67.773438 6.636719 L 67.773438 15.464844 L 66.023438 15.464844 Z M 71.792969 5.019531 L 73.253906 5.019531 L 73.253906 6.417969 L 73.328125 6.34375 C 73.472656 6.195312 73.546875 6.050781 73.691406 5.976562 C 74.203125 5.609375 74.710938 5.316406 75.222656 5.09375 C 75.808594 4.949219 76.390625 4.800781 77.050781 4.800781 C 77.414062 4.800781 77.851562 4.875 78.21875 4.949219 C 78.585938 5.019531 78.949219 5.167969 79.316406 5.316406 C 79.679688 5.535156 80.046875 5.753906 80.335938 5.976562 C 80.703125 6.195312 80.996094 6.492188 81.289062 6.859375 C 81.652344 7.300781 81.941406 7.816406 82.160156 8.402344 C 82.378906 8.992188 82.453125 9.578125 82.453125 10.242188 C 82.453125 10.757812 82.453125 11.273438 82.308594 11.710938 C 82.160156 12.152344 82.015625 12.597656 81.722656 13.039062 C 81.507812 13.40625 81.214844 13.773438 80.847656 14.140625 C 80.558594 14.433594 80.117188 14.726562 79.753906 14.949219 C 79.316406 15.171875 78.875 15.394531 78.363281 15.464844 C 77.925781 15.613281 77.488281 15.6875 76.976562 15.6875 C 76.320312 15.6875 75.734375 15.613281 75.148438 15.394531 C 74.636719 15.171875 74.128906 14.875 73.691406 14.507812 C 73.621094 14.359375 73.472656 14.214844 73.328125 14.066406 L 73.328125 18.996094 L 71.574219 18.996094 L 71.574219 5.019531 Z M 76.976562 13.992188 C 77.269531 13.992188 77.488281 13.992188 77.78125 13.917969 C 78 13.847656 78.292969 13.773438 78.511719 13.699219 C 78.730469 13.625 78.949219 13.480469 79.167969 13.332031 C 79.316406 13.183594 79.535156 13.039062 79.679688 12.890625 C 79.898438 12.746094 80.046875 12.523438 80.191406 12.375 C 80.265625 12.152344 80.410156 11.933594 80.484375 11.710938 C 80.558594 11.492188 80.628906 11.273438 80.703125 11.050781 C 80.777344 10.832031 80.777344 10.539062 80.777344 10.242188 C 80.777344 9.949219 80.703125 9.578125 80.628906 9.285156 C 80.558594 8.992188 80.410156 8.699219 80.265625 8.402344 C 80.117188 8.109375 79.898438 7.816406 79.679688 7.597656 C 79.460938 7.375 79.167969 7.15625 78.875 7.007812 C 78.585938 6.859375 78.292969 6.710938 78 6.636719 C 77.707031 6.492188 77.34375 6.492188 76.976562 6.492188 C 76.683594 6.492188 76.320312 6.492188 76.027344 6.636719 C 75.660156 6.710938 75.367188 6.785156 75.078125 7.007812 C 74.785156 7.15625 74.570312 7.300781 74.277344 7.597656 C 74.058594 7.816406 73.910156 8.035156 73.691406 8.332031 C 73.546875 8.625 73.398438 8.917969 73.328125 9.210938 C 73.253906 9.578125 73.253906 9.875 73.253906 10.242188 C 73.253906 10.609375 73.253906 10.90625 73.328125 11.273438 C 73.398438 11.566406 73.546875 11.859375 73.691406 12.152344 C 73.910156 12.449219 74.058594 12.671875 74.277344 12.890625 C 74.496094 13.113281 74.785156 13.332031 75.078125 13.480469 C 75.296875 13.699219 75.589844 13.773438 75.953125 13.917969 C 76.246094 13.992188 76.539062 13.992188 76.902344 13.992188 Z M 89.464844 4.800781 C 89.976562 4.800781 90.414062 4.875 90.851562 5.019531 C 91.363281 5.09375 91.800781 5.316406 92.167969 5.535156 C 92.605469 5.753906 92.972656 6.050781 93.335938 6.417969 C 93.628906 6.710938 93.921875 7.082031 94.214844 7.523438 C 94.433594 7.964844 94.652344 8.402344 94.726562 8.84375 C 94.871094 9.285156 94.945312 9.730469 94.945312 10.242188 C 94.945312 10.683594 94.871094 11.199219 94.726562 11.640625 C 94.652344 12.078125 94.433594 12.523438 94.214844 12.964844 C 93.992188 13.332031 93.703125 13.773438 93.335938 14.066406 C 93.042969 14.433594 92.679688 14.726562 92.242188 14.949219 C 91.800781 15.171875 91.363281 15.394531 90.925781 15.464844 C 90.488281 15.613281 90.046875 15.6875 89.535156 15.6875 C 89.097656 15.6875 88.589844 15.613281 88.152344 15.464844 C 87.714844 15.394531 87.277344 15.171875 86.910156 14.949219 C 86.472656 14.726562 86.105469 14.433594 85.742188 14.066406 C 85.449219 13.773438 85.15625 13.40625 84.863281 12.964844 C 84.644531 12.597656 84.5 12.152344 84.351562 11.710938 C 84.207031 11.273438 84.132812 10.757812 84.132812 10.316406 C 84.132812 9.804688 84.207031 9.359375 84.351562 8.917969 C 84.425781 8.402344 84.644531 7.964844 84.863281 7.597656 C 85.15625 7.15625 85.375 6.785156 85.742188 6.417969 C 86.035156 6.121094 86.398438 5.828125 86.835938 5.535156 C 87.203125 5.316406 87.640625 5.09375 88.078125 5.019531 C 88.519531 4.875 89.023438 4.800781 89.464844 4.800781 Z M 89.535156 6.492188 C 89.246094 6.492188 88.882812 6.5625 88.589844 6.636719 C 88.226562 6.710938 87.933594 6.859375 87.714844 7.007812 C 87.421875 7.230469 87.128906 7.375 86.910156 7.597656 C 86.691406 7.816406 86.542969 8.109375 86.324219 8.402344 C 86.179688 8.699219 86.105469 8.992188 85.960938 9.285156 C 85.886719 9.578125 85.886719 9.949219 85.886719 10.316406 C 85.886719 10.609375 85.886719 10.976562 85.960938 11.273438 C 86.105469 11.566406 86.179688 11.859375 86.398438 12.152344 C 86.542969 12.449219 86.765625 12.746094 86.984375 12.964844 C 87.203125 13.183594 87.421875 13.332031 87.714844 13.550781 C 88.007812 13.699219 88.296875 13.773438 88.589844 13.917969 C 88.957031 13.992188 89.246094 13.992188 89.609375 13.992188 C 89.902344 13.992188 90.265625 13.992188 90.558594 13.917969 C 90.851562 13.773438 91.144531 13.699219 91.4375 13.480469 C 91.730469 13.332031 91.949219 13.113281 92.167969 12.890625 C 92.386719 12.671875 92.605469 12.449219 92.75 12.152344 C 92.898438 11.859375 93.042969 11.492188 93.117188 11.199219 C 93.191406 10.90625 93.191406 10.539062 93.191406 10.171875 C 93.191406 9.875 93.191406 9.503906 93.117188 9.210938 C 93.042969 8.917969 92.898438 8.625 92.75 8.332031 C 92.53125 8.035156 92.386719 7.816406 92.167969 7.597656 C 91.949219 7.375 91.65625 7.15625 91.4375 7.007812 C 91.144531 6.785156 90.851562 6.710938 90.558594 6.636719 C 90.265625 6.492188 89.976562 6.492188 89.609375 6.492188 Z M 98.667969 12.964844 L 104.144531 5.09375 L 104.144531 5.019531 L 105.824219 5.019531 L 105.824219 15.464844 L 104.070312 15.464844 L 104.070312 7.523438 L 98.667969 15.394531 L 98.59375 15.464844 L 96.984375 15.464844 L 96.984375 5.019531 L 98.667969 5.019531 Z M 109.695312 15.246094 L 109.695312 6.636719 L 107.359375 6.636719 L 107.359375 5.019531 L 113.710938 5.019531 L 113.710938 6.636719 L 111.375 6.636719 L 111.375 15.464844 L 109.695312 15.464844 Z M 125.394531 10.832031 L 116.632812 10.832031 C 116.632812 10.976562 116.632812 11.199219 116.707031 11.34375 C 116.78125 11.492188 116.78125 11.710938 116.851562 11.859375 C 117 12.078125 117.074219 12.226562 117.21875 12.449219 C 117.359375 12.597656 117.507812 12.816406 117.652344 12.964844 C 117.871094 13.113281 118.019531 13.257812 118.238281 13.40625 C 118.457031 13.550781 118.675781 13.625 118.894531 13.773438 C 119.113281 13.847656 119.332031 13.917969 119.554688 13.917969 C 119.773438 13.992188 120.066406 13.992188 120.285156 13.992188 C 121.308594 13.992188 122.183594 13.625 122.988281 12.964844 C 123.058594 12.816406 123.207031 12.671875 123.351562 12.449219 C 123.425781 12.300781 123.570312 12.152344 123.644531 11.933594 L 123.71875 11.785156 L 125.539062 11.785156 L 125.394531 12.078125 C 125.320312 12.375 125.175781 12.597656 125.03125 12.816406 C 124.957031 13.039062 124.8125 13.257812 124.738281 13.40625 C 124.589844 13.550781 124.523438 13.699219 124.375 13.847656 C 124.230469 13.992188 124.011719 14.214844 123.863281 14.359375 C 123.644531 14.582031 123.351562 14.726562 123.058594 14.875 C 122.769531 15.09375 122.476562 15.246094 122.183594 15.320312 C 121.890625 15.464844 121.527344 15.539062 121.234375 15.613281 C 120.867188 15.6875 120.574219 15.6875 120.210938 15.6875 C 119.773438 15.6875 119.261719 15.613281 118.824219 15.539062 C 118.382812 15.394531 117.945312 15.171875 117.582031 14.949219 C 117.144531 14.726562 116.78125 14.433594 116.414062 14.140625 C 116.121094 13.773438 115.832031 13.40625 115.609375 12.964844 C 115.390625 12.597656 115.171875 12.152344 115.027344 11.710938 C 114.953125 11.199219 114.878906 10.757812 114.878906 10.242188 C 114.878906 9.804688 114.953125 9.285156 115.027344 8.84375 C 115.171875 8.402344 115.390625 7.964844 115.609375 7.523438 C 115.832031 7.082031 116.121094 6.710938 116.414062 6.417969 C 116.78125 6.050781 117.144531 5.828125 117.582031 5.535156 C 117.945312 5.316406 118.382812 5.09375 118.824219 5.019531 C 119.261719 4.875 119.773438 4.800781 120.210938 4.800781 C 120.648438 4.800781 121.015625 4.875 121.453125 4.949219 C 121.816406 5.019531 122.183594 5.167969 122.546875 5.316406 C 122.914062 5.535156 123.28125 5.753906 123.570312 5.976562 C 123.863281 6.195312 124.15625 6.492188 124.445312 6.859375 C 124.667969 7.15625 124.882812 7.449219 125.03125 7.816406 C 125.175781 8.183594 125.320312 8.550781 125.46875 8.917969 C 125.46875 9.066406 125.46875 9.285156 125.539062 9.578125 C 125.539062 9.875 125.539062 10.242188 125.613281 10.609375 L 125.613281 10.832031 Z M 116.707031 9.210938 L 123.789062 9.210938 C 123.71875 8.992188 123.71875 8.84375 123.644531 8.699219 C 123.5 8.402344 123.351562 8.183594 123.207031 7.964844 C 122.988281 7.742188 122.839844 7.523438 122.621094 7.300781 C 122.402344 7.15625 122.109375 7.007812 121.890625 6.859375 C 121.597656 6.710938 121.378906 6.636719 121.085938 6.5625 C 120.796875 6.492188 120.503906 6.492188 120.210938 6.492188 C 119.917969 6.492188 119.699219 6.492188 119.40625 6.5625 C 119.113281 6.636719 118.894531 6.710938 118.601562 6.859375 C 118.382812 6.929688 118.164062 7.082031 117.945312 7.300781 C 117.726562 7.449219 117.507812 7.667969 117.359375 7.890625 C 117.144531 8.109375 117 8.332031 116.925781 8.625 C 116.78125 8.769531 116.707031 8.992188 116.707031 9.210938 Z M 131.972656 4.949219 L 135.621094 15.171875 L 135.765625 15.464844 L 133.867188 15.464844 L 133.867188 15.320312 L 131.09375 7.597656 L 128.316406 15.320312 L 128.246094 15.464844 L 126.34375 15.464844 L 126.492188 15.171875 L 130.21875 4.949219 L 130.21875 4.875 L 131.894531 4.875 Z M 136.789062 15.246094 L 136.789062 5.019531 L 138.542969 5.019531 L 138.542969 8.84375 L 139.929688 8.84375 C 140.511719 8.84375 140.949219 8.84375 141.390625 8.917969 C 141.753906 8.917969 142.121094 9.066406 142.414062 9.136719 C 142.558594 9.210938 142.703125 9.359375 142.851562 9.433594 C 142.996094 9.578125 143.144531 9.652344 143.289062 9.804688 C 143.433594 9.949219 143.507812 10.171875 143.65625 10.316406 C 143.726562 10.464844 143.800781 10.683594 143.875 10.832031 C 143.945312 11.050781 144.019531 11.273438 144.019531 11.492188 C 144.09375 11.710938 144.09375 11.933594 144.09375 12.152344 C 144.09375 13.113281 143.800781 13.917969 143.214844 14.507812 C 143.070312 14.65625 142.851562 14.800781 142.632812 14.949219 C 142.414062 15.09375 142.191406 15.171875 141.972656 15.246094 C 141.753906 15.320312 141.460938 15.394531 141.097656 15.394531 C 140.730469 15.464844 140.367188 15.464844 139.929688 15.464844 L 136.789062 15.464844 Z M 138.542969 10.390625 L 138.542969 13.847656 L 139.855469 13.847656 C 140.148438 13.847656 140.4375 13.847656 140.730469 13.847656 C 140.878906 13.847656 140.949219 13.773438 141.097656 13.773438 C 141.171875 13.773438 141.242188 13.773438 141.390625 13.699219 C 141.535156 13.625 141.679688 13.550781 141.753906 13.480469 C 141.902344 13.40625 141.972656 13.257812 142.121094 13.183594 C 142.191406 13.039062 142.265625 12.890625 142.265625 12.671875 C 142.339844 12.523438 142.339844 12.300781 142.339844 12.152344 C 142.339844 11.640625 142.191406 11.273438 141.972656 10.976562 C 141.902344 10.90625 141.828125 10.832031 141.753906 10.757812 C 141.609375 10.683594 141.535156 10.609375 141.390625 10.539062 C 141.242188 10.464844 141.023438 10.464844 140.804688 10.464844 C 140.585938 10.390625 140.21875 10.390625 139.855469 10.390625 Z M 147.523438 9.285156 L 152.925781 9.285156 L 152.925781 5.019531 L 154.605469 5.019531 L 154.605469 15.464844 L 152.925781 15.464844 L 152.925781 10.90625 L 147.523438 10.90625 L 147.523438 15.464844 L 145.769531 15.464844 L 145.769531 5.019531 L 147.523438 5.019531 Z M 156.945312 15.246094 L 156.945312 5.019531 L 158.625 5.019531 L 158.625 8.84375 L 160.082031 8.84375 C 160.597656 8.84375 161.105469 8.84375 161.472656 8.917969 C 161.910156 8.917969 162.203125 9.066406 162.496094 9.136719 C 162.640625 9.210938 162.859375 9.359375 163.007812 9.433594 C 163.152344 9.578125 163.296875 9.652344 163.445312 9.804688 C 163.519531 9.949219 163.664062 10.171875 163.738281 10.316406 C 163.882812 10.464844 163.957031 10.683594 164.027344 10.832031 C 164.101562 11.050781 164.101562 11.273438 164.175781 11.492188 C 164.175781 11.710938 164.175781 11.933594 164.175781 12.152344 C 164.175781 13.113281 163.882812 13.917969 163.371094 14.507812 C 163.152344 14.65625 163.007812 14.800781 162.785156 14.949219 C 162.566406 15.09375 162.347656 15.171875 162.054688 15.246094 C 161.835938 15.320312 161.542969 15.394531 161.179688 15.394531 C 160.886719 15.464844 160.523438 15.464844 160.082031 15.464844 L 156.945312 15.464844 Z M 165.199219 15.246094 L 165.199219 5.019531 L 166.949219 5.019531 L 166.949219 15.464844 L 165.199219 15.464844 Z M 158.625 10.390625 L 158.625 13.847656 L 160.015625 13.847656 C 160.304688 13.847656 160.597656 13.847656 160.8125 13.847656 C 160.960938 13.847656 161.105469 13.773438 161.179688 13.773438 C 161.253906 13.773438 161.398438 13.773438 161.472656 13.699219 C 161.617188 13.625 161.765625 13.550781 161.910156 13.480469 C 162.054688 13.40625 162.128906 13.257812 162.203125 13.183594 C 162.277344 13.039062 162.347656 12.890625 162.421875 12.671875 C 162.421875 12.523438 162.496094 12.300781 162.496094 12.152344 C 162.496094 11.640625 162.347656 11.273438 162.128906 10.976562 C 162.054688 10.90625 161.984375 10.832031 161.835938 10.757812 C 161.765625 10.683594 161.617188 10.609375 161.472656 10.539062 C 161.324219 10.464844 161.179688 10.464844 160.886719 10.464844 C 160.667969 10.390625 160.375 10.390625 160.015625 10.390625 Z M 171.113281 12.964844 L 176.515625 5.09375 L 176.589844 5.019531 L 178.195312 5.019531 L 178.195312 15.464844 L 176.441406 15.464844 L 176.441406 7.523438 L 171.039062 15.394531 L 171.039062 15.464844 L 169.359375 15.464844 L 169.359375 5.019531 L 171.113281 5.019531 Z M 171.113281 1.488281 L 172.429688 1.488281 L 172.429688 1.640625 C 172.574219 1.859375 172.792969 2.078125 173.011719 2.152344 C 173.230469 2.300781 173.597656 2.375 173.960938 2.375 C 174.25 2.375 174.542969 2.300781 174.835938 2.152344 C 175.054688 2.078125 175.199219 1.859375 175.347656 1.640625 L 175.421875 1.488281 L 176.953125 1.488281 L 176.882812 1.785156 C 176.808594 2.007812 176.734375 2.152344 176.664062 2.300781 C 176.589844 2.519531 176.441406 2.667969 176.371094 2.742188 C 176.078125 3.109375 175.710938 3.328125 175.347656 3.546875 C 174.910156 3.695312 174.472656 3.769531 173.960938 3.769531 C 173.671875 3.769531 173.378906 3.769531 173.085938 3.695312 C 172.867188 3.695312 172.574219 3.546875 172.355469 3.476562 C 172.210938 3.402344 172.0625 3.253906 171.84375 3.179688 C 171.699219 3.035156 171.625 2.886719 171.476562 2.742188 C 171.332031 2.667969 171.257812 2.519531 171.1875 2.300781 C 171.113281 2.152344 171.039062 2.007812 170.96875 1.785156 L 170.894531 1.488281 Z M 60.109375 32.382812 L 52.953125 32.382812 L 52.953125 34.664062 L 51.34375 34.664062 L 51.34375 30.761719 L 52.367188 30.761719 L 55.796875 22.082031 L 55.796875 21.9375 L 57.1875 21.9375 L 57.257812 22.082031 L 60.691406 30.761719 L 61.710938 30.761719 L 61.710938 34.664062 L 60.109375 34.664062 Z M 58.867188 30.761719 L 56.527344 24.585938 L 54.191406 30.761719 Z M 63.246094 32.160156 L 63.246094 21.9375 L 66.460938 21.9375 C 66.753906 21.9375 66.972656 21.9375 67.191406 22.011719 C 67.480469 22.011719 67.699219 22.011719 67.847656 22.082031 C 68.066406 22.082031 68.210938 22.15625 68.359375 22.230469 C 68.503906 22.304688 68.652344 22.378906 68.796875 22.453125 C 69.015625 22.597656 69.234375 22.746094 69.382812 22.890625 C 69.527344 23.113281 69.671875 23.257812 69.746094 23.484375 C 69.894531 23.703125 69.964844 23.925781 69.964844 24.144531 C 70.039062 24.363281 70.113281 24.585938 70.113281 24.804688 C 70.113281 25.027344 70.039062 25.246094 69.964844 25.464844 C 69.964844 25.6875 69.820312 25.90625 69.746094 26.132812 C 69.601562 26.351562 69.453125 26.5 69.308594 26.644531 C 69.234375 26.71875 69.160156 26.71875 69.089844 26.792969 C 69.234375 26.792969 69.382812 26.867188 69.453125 26.9375 C 69.671875 27.160156 69.894531 27.304688 70.113281 27.601562 C 70.257812 27.820312 70.402344 28.113281 70.476562 28.40625 C 70.625 28.707031 70.625 29 70.625 29.292969 C 70.625 29.585938 70.625 29.808594 70.550781 30.027344 C 70.476562 30.246094 70.402344 30.46875 70.332031 30.6875 L 70.257812 30.6875 C 70.183594 30.910156 70.039062 31.128906 69.894531 31.277344 C 69.746094 31.5 69.527344 31.648438 69.308594 31.792969 C 69.160156 31.867188 68.941406 32.015625 68.796875 32.089844 C 68.578125 32.160156 68.429688 32.160156 68.210938 32.234375 C 67.992188 32.308594 67.773438 32.308594 67.480469 32.308594 C 67.191406 32.308594 66.828125 32.382812 66.460938 32.382812 L 63.246094 32.382812 Z M 64.929688 30.761719 L 66.460938 30.761719 C 66.902344 30.761719 67.191406 30.761719 67.480469 30.6875 C 67.773438 30.6875 67.917969 30.613281 68.066406 30.542969 C 68.359375 30.394531 68.503906 30.246094 68.652344 30.027344 C 68.722656 29.808594 68.796875 29.585938 68.796875 29.292969 C 68.796875 29.074219 68.796875 28.925781 68.722656 28.777344 C 68.722656 28.707031 68.652344 28.554688 68.578125 28.40625 C 68.503906 28.335938 68.359375 28.1875 68.285156 28.113281 C 68.140625 28.039062 67.992188 27.96875 67.847656 27.894531 C 67.699219 27.894531 67.480469 27.820312 67.265625 27.820312 C 67.046875 27.820312 66.679688 27.746094 66.390625 27.746094 L 64.929688 27.746094 Z M 64.929688 26.203125 L 66.390625 26.203125 C 66.753906 26.203125 67.046875 26.203125 67.265625 26.132812 C 67.480469 26.132812 67.628906 26.058594 67.773438 25.984375 C 67.992188 25.90625 68.140625 25.761719 68.210938 25.539062 C 68.285156 25.394531 68.359375 25.097656 68.359375 24.878906 C 68.359375 24.585938 68.285156 24.363281 68.210938 24.21875 C 68.140625 23.996094 67.992188 23.851562 67.773438 23.777344 C 67.699219 23.703125 67.628906 23.703125 67.628906 23.703125 C 67.554688 23.628906 67.480469 23.628906 67.414062 23.628906 C 67.265625 23.558594 67.191406 23.558594 66.972656 23.558594 C 66.828125 23.558594 66.679688 23.558594 66.460938 23.558594 L 64.929688 23.558594 Z M 77.632812 21.714844 C 78.144531 21.714844 78.585938 21.789062 79.023438 21.863281 C 79.460938 22.011719 79.898438 22.230469 80.335938 22.453125 C 80.777344 22.671875 81.140625 22.964844 81.507812 23.335938 C 81.796875 23.628906 82.085938 23.996094 82.308594 24.4375 C 82.597656 24.804688 82.746094 25.246094 82.890625 25.6875 C 83.039062 26.203125 83.109375 26.644531 83.109375 27.085938 C 83.109375 27.601562 83.039062 28.113281 82.890625 28.554688 C 82.746094 29 82.597656 29.441406 82.378906 29.878906 C 82.085938 30.246094 81.796875 30.613281 81.507812 30.984375 C 81.140625 31.277344 80.777344 31.574219 80.410156 31.867188 C 79.972656 32.089844 79.535156 32.308594 79.09375 32.382812 C 78.65625 32.527344 78.21875 32.601562 77.707031 32.601562 C 77.269531 32.601562 76.757812 32.527344 76.320312 32.382812 C 75.878906 32.308594 75.441406 32.089844 75.003906 31.867188 C 74.636719 31.648438 74.203125 31.355469 73.910156 30.984375 C 73.546875 30.6875 73.253906 30.320312 73.035156 29.878906 C 72.816406 29.441406 72.597656 29.074219 72.523438 28.554688 C 72.378906 28.113281 72.304688 27.671875 72.304688 27.234375 C 72.304688 26.71875 72.378906 26.277344 72.523438 25.761719 C 72.597656 25.320312 72.816406 24.878906 73.035156 24.511719 C 73.253906 24.070312 73.546875 23.703125 73.910156 23.335938 C 74.203125 23.039062 74.570312 22.746094 75.003906 22.453125 C 75.367188 22.230469 75.808594 22.011719 76.246094 21.9375 C 76.683594 21.789062 77.121094 21.714844 77.632812 21.714844 Z M 77.707031 23.410156 C 77.34375 23.410156 77.050781 23.484375 76.757812 23.558594 C 76.390625 23.628906 76.101562 23.777344 75.808594 23.925781 C 75.515625 24.070312 75.296875 24.292969 75.078125 24.511719 C 74.859375 24.730469 74.636719 25.027344 74.496094 25.320312 C 74.351562 25.613281 74.203125 25.90625 74.128906 26.203125 C 74.058594 26.5 74.058594 26.867188 74.058594 27.234375 C 74.058594 27.527344 74.058594 27.894531 74.128906 28.1875 C 74.203125 28.480469 74.351562 28.777344 74.496094 29.074219 C 74.710938 29.367188 74.859375 29.585938 75.078125 29.808594 C 75.296875 30.027344 75.589844 30.246094 75.878906 30.394531 C 76.171875 30.613281 76.464844 30.6875 76.757812 30.761719 C 77.050781 30.835938 77.414062 30.910156 77.707031 30.910156 C 78.074219 30.910156 78.363281 30.835938 78.730469 30.761719 C 79.023438 30.6875 79.316406 30.542969 79.605469 30.394531 C 79.828125 30.246094 80.117188 30.027344 80.335938 29.808594 C 80.558594 29.585938 80.703125 29.292969 80.921875 29 C 81.070312 28.707031 81.140625 28.40625 81.214844 28.113281 C 81.359375 27.746094 81.359375 27.453125 81.359375 27.085938 C 81.359375 26.71875 81.359375 26.425781 81.214844 26.132812 C 81.140625 25.832031 81.070312 25.539062 80.847656 25.246094 C 80.703125 24.953125 80.558594 24.730469 80.335938 24.511719 C 80.117188 24.21875 79.828125 24.070312 79.535156 23.925781 C 79.316406 23.703125 79.023438 23.628906 78.730469 23.484375 C 78.4375 23.410156 78.074219 23.410156 77.78125 23.410156 Z M 85.300781 21.9375 L 86.765625 21.9375 L 86.765625 23.335938 L 86.835938 23.1875 C 86.984375 23.039062 87.128906 22.964844 87.203125 22.890625 C 87.714844 22.453125 88.226562 22.15625 88.808594 22.011719 C 89.316406 21.789062 89.976562 21.714844 90.558594 21.714844 C 91 21.714844 91.363281 21.789062 91.730469 21.863281 C 92.09375 21.9375 92.460938 22.082031 92.824219 22.230469 C 93.191406 22.378906 93.554688 22.597656 93.921875 22.890625 C 94.214844 23.113281 94.503906 23.410156 94.796875 23.703125 C 95.164062 24.21875 95.527344 24.730469 95.675781 25.320312 C 95.894531 25.832031 96.035156 26.5 96.035156 27.160156 C 96.035156 27.671875 95.964844 28.113281 95.820312 28.628906 C 95.675781 29.074219 95.527344 29.511719 95.308594 29.878906 C 95.015625 30.320312 94.726562 30.6875 94.433594 30.984375 C 94.066406 31.355469 93.703125 31.648438 93.261719 31.867188 C 92.824219 32.089844 92.386719 32.308594 91.949219 32.382812 C 91.4375 32.527344 91 32.601562 90.488281 32.601562 C 89.828125 32.601562 89.246094 32.457031 88.738281 32.308594 C 88.152344 32.089844 87.640625 31.792969 87.277344 31.425781 C 87.128906 31.277344 86.984375 31.128906 86.835938 30.984375 L 86.835938 30.910156 L 86.835938 35.835938 L 85.15625 35.835938 L 85.15625 21.9375 Z M 90.488281 30.910156 C 90.777344 30.910156 91 30.835938 91.289062 30.835938 C 91.507812 30.761719 91.800781 30.6875 92.019531 30.613281 C 92.242188 30.46875 92.460938 30.394531 92.679688 30.246094 C 92.898438 30.101562 93.042969 29.953125 93.261719 29.808594 C 93.410156 29.660156 93.554688 29.441406 93.703125 29.292969 C 93.847656 29.074219 93.921875 28.851562 93.992188 28.628906 C 94.140625 28.40625 94.214844 28.1875 94.214844 27.96875 C 94.285156 27.671875 94.285156 27.453125 94.285156 27.160156 C 94.285156 26.867188 94.285156 26.5 94.214844 26.203125 C 94.066406 25.90625 93.992188 25.539062 93.773438 25.246094 C 93.628906 24.953125 93.410156 24.730469 93.191406 24.511719 C 92.972656 24.292969 92.75 24.070312 92.460938 23.925781 C 92.167969 23.703125 91.800781 23.628906 91.507812 23.484375 C 91.21875 23.410156 90.851562 23.410156 90.558594 23.410156 C 90.195312 23.410156 89.828125 23.410156 89.535156 23.484375 C 89.171875 23.628906 88.882812 23.703125 88.589844 23.851562 C 88.296875 24.070312 88.078125 24.21875 87.859375 24.4375 C 87.640625 24.660156 87.421875 24.953125 87.277344 25.246094 C 87.054688 25.539062 86.984375 25.832031 86.910156 26.132812 C 86.765625 26.5 86.765625 26.792969 86.765625 27.160156 C 86.765625 27.527344 86.765625 27.820312 86.910156 28.1875 C 86.984375 28.480469 87.054688 28.777344 87.277344 29.074219 C 87.421875 29.367188 87.566406 29.585938 87.785156 29.808594 C 88.078125 30.027344 88.296875 30.246094 88.589844 30.394531 C 88.882812 30.542969 89.171875 30.6875 89.464844 30.761719 C 89.757812 30.835938 90.046875 30.910156 90.414062 30.910156 Z M 90.488281 30.910156 "/>
</g>
</svg>
